<svg width="47" height="49" viewBox="0 0 47 49" fill="none" xmlns="http://www.w3.org/2000/svg">
<g clip-path="url(#clip0_1360_2082)">
<path d="M29.8642 35.0476C31.386 34.1685 32.8279 33.238 34.1814 32.2681C34.9143 28.0737 35.3367 22.773 34.6686 17.2571C34.448 17.107 34.2223 16.9568 33.9952 16.8077C32.4788 15.8107 30.8563 14.8648 29.1411 13.9822C27.8436 13.3142 26.5368 12.7188 25.2484 12.1768C24.451 11.8405 23.6408 11.5292 22.7932 11.2356C21.0554 11.9922 19.3005 12.8734 17.5529 13.8828C15.989 14.7863 14.5097 15.7449 13.1241 16.7442C12.714 19.0742 12.4564 21.5601 12.3836 24.1462C12.3099 26.7488 12.4272 29.2595 12.7087 31.6204C16.4614 34.1336 20.6267 36.2277 24.6147 37.7007C26.3548 36.9416 28.1138 36.06 29.8642 35.0476Z" fill="white"/>
<path d="M13.0362 16.7564C13.5253 13.9754 14.2337 11.4184 15.1129 9.1833C8.1749 8.00823 2.63434 9.15371 0.782751 12.7305C-0.857938 15.899 0.738559 20.3162 4.58896 24.73C6.68938 22.0033 9.56549 19.2569 13.0362 16.7564Z" fill="white"/>
<path d="M42.5532 24.0318C40.9043 26.1738 38.7762 28.3258 36.2573 30.3633C35.9934 34.1556 35.3685 37.5115 34.6088 39.9136C40.3193 40.4209 44.744 39.1507 46.359 36.0307C48.0001 32.8623 46.4041 28.4451 42.5532 24.0318Z" fill="white"/>
<path d="M32.5187 8.28437C32.2947 7.68815 32.052 7.09474 31.7913 6.50563C31.64 6.21992 29.0682 0.135872 24.4138 0.00227642C21.2472 -0.0883303 18.3056 2.64261 16.1221 7.11177C19.4994 8.06893 22.5497 9.12298 25.2474 10.2642C27.7735 9.32304 30.2272 8.66184 32.5187 8.28437Z" fill="white"/>
<path d="M14.8688 40.6207C16.8006 45.6158 19.7047 48.7997 23.0303 48.8927C26.0965 48.9785 28.953 46.4213 31.1138 42.2013C29.1061 41.6632 25.7699 40.5082 22.0155 38.7006C19.5319 39.6131 17.1223 40.2539 14.8688 40.6207Z" fill="white"/>
<path d="M4.49987 24.656C1.02607 29.2538 -0.226341 33.7757 1.61598 36.9441C3.57403 40.3106 8.60298 41.4098 14.8435 40.3945C14.0164 38.255 13.3676 35.7829 12.9395 33.0811C9.76597 30.7443 6.78735 27.9422 4.49987 24.656Z" fill="white"/>
<path d="M42.8368 23.9895C46.3593 19.3621 47.6369 14.8053 45.7828 11.6185C43.8429 8.28195 38.8891 7.17119 32.7288 8.1381C34.0001 10.6551 34.9084 13.3986 35.5184 16.2145C39.5973 19.4816 41.8818 22.5426 42.8368 23.9895Z" fill="white"/>
<path d="M35.8621 18.1018C36.5939 22.3511 36.7037 26.6752 36.434 30.5437C38.9529 28.5062 41.081 26.3541 42.7299 24.2121C42.5259 23.9782 42.3159 23.7441 42.0992 23.5106C40.6237 21.9451 38.5334 20.0366 35.8621 18.1018Z" fill="#1690C3"/>
<path d="M12.9888 33.0829C13.4169 35.7847 14.0657 38.2567 14.8928 40.3962C17.1463 40.0295 19.5559 39.3887 22.0395 38.4761C19.1325 37.0767 15.978 35.2859 12.9888 33.0829Z" fill="#1690C3"/>
<path d="M29.8315 34.926C28.0811 35.9384 26.3221 36.82 24.582 37.579C25.4486 37.8934 25.8563 38.0377 26.5278 38.2523C28.3781 38.8427 30.1789 39.2792 31.889 39.5878C31.9434 39.5975 31.9981 39.6076 32.0515 39.6164C32.097 39.6232 32.1409 39.6294 32.1864 39.6372C32.2712 39.4221 32.3544 39.2017 32.4365 38.9798C32.9833 37.4297 33.6403 35.0538 34.1488 32.1464C32.7952 33.1163 31.3533 34.0469 29.8315 34.926Z" fill="#1690C3"/>
<path d="M17.4177 13.7626C19.1652 12.7532 20.9201 11.872 22.6579 11.1154C20.3028 10.2992 17.8035 9.57207 15.1053 9.0572C15.0922 9.05422 15.0781 9.0529 15.0654 9.05091C14.1863 11.286 13.4778 13.843 12.9888 16.624C14.3744 15.6247 15.8537 14.6661 17.4177 13.7626Z" fill="#1690C3"/>
<path d="M8.59696 28.4664C8.73348 28.5811 8.86818 28.6951 9.00719 28.8073C9.02129 28.8186 9.03622 28.8306 9.04982 28.8417C10.1626 29.7408 11.3403 30.6016 12.5607 31.4177C12.2792 29.0568 12.1619 26.5461 12.2356 23.9435C12.3084 21.3574 12.566 18.8715 12.9761 16.5415C9.50533 19.042 6.62922 21.7884 4.52881 24.5151C5.68934 25.8424 7.05443 27.1729 8.59696 28.4664Z" fill="#1690C3"/>
<path d="M34.3802 15.2896C33.9862 12.8961 33.373 10.4804 32.48 8.11458C30.1885 8.49206 27.7348 9.15325 25.2087 10.0944C27.8093 11.1939 30.0825 12.3749 32.0018 13.6247C32.8493 14.1773 33.6395 14.735 34.3802 15.2896Z" fill="#1690C3"/>
</g>
<defs>
<clipPath id="clip0_1360_2082">
<rect width="47" height="49" fill="white"/>
</clipPath>
</defs>
</svg>
