<svg width="959" height="156" viewBox="0 0 959 156" fill="none" xmlns="http://www.w3.org/2000/svg">
<path fill-rule="evenodd" clip-rule="evenodd" d="M821.512 123.974H841.153V95.0464H880.436V75.4615H841.153V67.1523H880.436V47.5232H841.153H826.841V47.5377L821.512 47.5431V123.974ZM888.706 123.974H908.347V47.5232H888.706V123.974Z" fill="white"/>
<path fill-rule="evenodd" clip-rule="evenodd" d="M935.224 15.4967H794.635V156H935.224V15.4967ZM927.988 22.7285H801.871V148.768H927.988V22.7285Z" fill="white"/>
<path d="M818.411 0H959L935.224 15.4967H794.635L818.411 0Z" fill="white"/>
<path d="M935.224 15.4967L959 0V140.503L935.224 156V15.4967Z" fill="white"/>
<path d="M65.8707 123.264V104.449H20.8129V95.0978H64.2101V76.3948H20.8129V67.4886H65.8707V48.6743H0V123.264H65.8707Z" fill="white"/>
<path d="M130.351 123.264L160.131 48.6743H135.111L116.402 102.111H114.962L95.81 48.6743H70.6795L100.46 123.264H130.351Z" fill="white"/>
<path d="M231.546 123.264V104.449H186.489V95.0978H229.886V76.3948H186.489V67.4886H231.546V48.6743H165.676V123.264H231.546Z" fill="white"/>
<path d="M260.489 123.264V97.881H269.014C277.095 97.881 279.31 99.4395 281.967 105.006L290.823 123.264H314.847L305.658 104.561C302.89 98.8829 300.455 95.2091 292.816 93.2052V92.0919C306.986 90.3107 312.854 83.2971 312.854 71.4964C312.854 56.9125 302.558 48.6743 282.963 48.6743H239.676V123.264H260.489ZM260.489 67.4886H282.742C288.83 67.4886 291.045 68.9359 291.045 74.8362C291.045 81.1819 288.83 82.2951 282.742 82.2951H260.489V67.4886Z" fill="white"/>
<path d="M363.999 123.264V99.6622L397.986 48.6743H372.08L360.899 66.3753L354.589 76.8401H353.149L346.839 66.3753L335.658 48.6743H309.863L343.186 99.5509V123.264H363.999Z" fill="white"/>
<path d="M450.53 123.264V67.4886H476.657V48.6743H403.48V67.4886H429.717V123.264H450.53Z" fill="white"/>
<path d="M504.711 123.264V95.2091H539.251V123.264H560.064V48.6743H539.251V76.3948H504.711V48.6743H483.898V123.264H504.711Z" fill="white"/>
<path d="M589.739 123.264V48.6743H568.926V123.264H589.739Z" fill="white"/>
<path d="M619.414 123.264V94.0958L618.528 79.8459H619.967L629.377 94.5411L651.297 123.264H673.439V48.6743H652.626V77.5081L653.622 93.7619H652.183L641.334 76.6175L620.742 48.6743H598.601V123.264H619.414Z" fill="white"/>
<path d="M718.201 124.377C735.582 124.377 741.892 116.027 743.885 107.344H744.992V123.264H764.366V82.5178H720.526V97.881H743.331C742.335 103.559 737.907 104.338 722.518 104.338C707.462 104.338 703.366 100.775 703.366 85.9689C703.366 71.1624 707.684 67.5999 723.625 67.5999C736.8 67.5999 741.006 70.2718 741.006 77.1741V77.9534H764.255V77.1741C764.255 58.6938 749.309 47.561 724.179 47.561C697.166 47.561 681.225 62.7015 681.225 85.9689C681.225 109.236 694.841 124.377 718.201 124.377Z" fill="white"/>
</svg>
