<svg width="32" height="38" viewBox="0 0 32 38" fill="none" xmlns="http://www.w3.org/2000/svg">
<path d="M25.3878 6.29667C25.3878 6.29667 26.4286 7.32444 25.3878 6.29667C23.9927 4.69256 23.2239 2.6325 23.2245 0.5H16.9184V25.9889C16.8697 27.3682 16.2916 28.6747 15.3056 29.6333C14.3197 30.5918 13.003 31.1276 11.6327 31.1278C8.73469 31.1278 6.32653 28.7433 6.32653 25.7833C6.32653 22.2478 9.71429 19.5961 13.2041 20.6856V14.19C6.16327 13.2444 0 18.7533 0 25.7833C0 32.6283 5.63265 37.5 11.6122 37.5C18.0204 37.5 23.2245 32.2583 23.2245 25.7833V12.8539C25.7816 14.7036 28.8518 15.696 32 15.6906V9.33889C32 9.33889 28.1633 9.52389 25.3878 6.29667Z" fill="white"/>
</svg>
