<svg width="188" height="194" viewBox="0 0 188 194" fill="none" xmlns="http://www.w3.org/2000/svg">
<g clip-path="url(#clip0_2162_1617)">
<path d="M119.79 138.76C125.844 135.28 131.581 131.596 136.967 127.756C139.883 111.149 141.563 90.1631 138.905 68.3245C138.027 67.7301 137.129 67.1357 136.225 66.5453C130.192 62.598 123.737 58.8529 116.913 55.3586C111.75 52.7139 106.551 50.3566 101.424 48.2108C98.2518 46.8793 95.0284 45.6467 91.6558 44.4841C84.7416 47.4796 77.7595 50.9687 70.8064 54.9651C64.5839 58.542 58.6981 62.3374 53.1851 66.2939C51.5536 75.5187 50.5286 85.3609 50.2389 95.5997C49.9458 105.904 50.4125 115.844 51.5325 125.192C66.4636 135.142 83.0362 143.432 98.9032 149.264C105.827 146.259 112.825 142.769 119.79 138.76Z" fill="white"/>
<path d="M52.8354 66.3419C54.7811 55.3313 57.6 45.2076 61.098 36.3586C33.4935 31.7062 11.4492 36.2414 4.08222 50.4027C-2.44563 62.9471 3.90639 80.4358 19.2261 97.9107C27.583 87.1154 39.0263 76.2416 52.8354 66.3419Z" fill="white"/>
<path d="M170.275 95.1465C163.715 103.627 155.248 112.147 145.226 120.214C144.176 135.229 141.689 148.515 138.667 158.026C161.387 160.034 178.992 155.005 185.417 142.653C191.947 130.108 185.597 112.619 170.275 95.1465Z" fill="white"/>
<path d="M130.351 32.799C129.46 30.4384 128.494 28.089 127.457 25.7566C126.855 24.6254 116.622 0.537579 98.104 0.00865173C85.5046 -0.350079 73.8008 10.4622 65.1133 28.1564C78.5508 31.946 90.6869 36.1192 101.42 40.6373C111.471 36.9113 121.234 34.2935 130.351 32.799Z" fill="white"/>
<path d="M60.1265 160.825C67.8128 180.602 79.3674 193.207 92.599 193.575C104.798 193.915 116.164 183.791 124.761 167.083C116.773 164.952 103.499 160.38 88.5612 153.223C78.6797 156.836 69.0925 159.373 60.1265 160.825Z" fill="white"/>
<path d="M18.8713 97.6178C5.04997 115.821 0.0669818 133.724 7.39706 146.269C15.1876 159.597 35.1964 163.949 60.0255 159.929C56.7348 151.459 54.1535 141.671 52.4501 130.974C39.8236 121.723 27.9725 110.628 18.8713 97.6178Z" fill="white"/>
<path d="M171.404 94.9792C185.419 76.6585 190.502 58.6173 183.125 46.0002C175.406 32.7901 155.697 28.3924 131.187 32.2206C136.245 42.1858 139.859 53.0478 142.286 64.1966C158.514 77.1318 167.604 89.2507 171.404 94.9792Z" fill="white"/>
<path d="M143.653 71.6688C146.565 88.4924 147.002 105.613 145.929 120.929C155.951 112.862 164.418 104.341 170.979 95.8608C170.167 94.9345 169.331 94.0075 168.469 93.0832C162.599 86.8853 154.282 79.3291 143.653 71.6688Z" fill="#1690C3"/>
<path d="M52.6465 130.981C54.3499 141.678 56.9312 151.465 60.2219 159.936C69.188 158.484 78.7752 155.947 88.6567 152.334C77.0908 146.793 64.5397 139.703 52.6465 130.981Z" fill="#1690C3"/>
<path d="M119.66 138.279C112.695 142.287 105.697 145.777 98.7734 148.783C102.221 150.027 103.844 150.598 106.515 151.448C113.877 153.786 121.042 155.514 127.846 156.735C128.062 156.774 128.28 156.814 128.493 156.849C128.673 156.876 128.848 156.9 129.029 156.931C129.366 156.08 129.698 155.207 130.024 154.328C132.2 148.191 134.814 138.785 136.837 127.274C131.451 131.114 125.715 134.798 119.66 138.279Z" fill="#1690C3"/>
<path d="M70.2678 54.489C77.2209 50.4926 84.203 47.0035 91.1171 44.0079C81.7471 40.7768 71.8029 37.8978 61.0674 35.8593C61.0153 35.8475 60.9592 35.8423 60.909 35.8344C57.411 44.6835 54.5922 54.8071 52.6465 65.8177C58.1595 61.8613 64.0453 58.0658 70.2678 54.489Z" fill="#1690C3"/>
<path d="M35.1724 112.703C35.7156 113.158 36.2515 113.609 36.8046 114.053C36.8607 114.098 36.9201 114.145 36.9742 114.189C41.4015 117.749 46.0874 121.157 50.9431 124.388C49.823 115.041 49.3564 105.101 49.6495 94.7962C49.9392 84.5574 50.9642 74.7153 52.5957 65.4904C38.7865 75.3902 27.3433 86.264 18.9863 97.0593C23.6037 102.315 29.0351 107.582 35.1724 112.703Z" fill="#1690C3"/>
<path d="M137.757 60.5344C136.19 51.0582 133.75 41.4943 130.197 32.1274C121.08 33.6219 111.317 36.2397 101.267 39.9658C111.613 44.319 120.658 48.9949 128.294 53.9431C131.666 56.1308 134.81 58.3388 137.757 60.5344Z" fill="#1690C3"/>
</g>
<defs>
<clipPath id="clip0_2162_1617">
<rect width="187" height="194" fill="white" transform="translate(0.967773)"/>
</clipPath>
</defs>
</svg>
