<svg width="40" height="40" viewBox="0 0 40 40" fill="none" xmlns="http://www.w3.org/2000/svg">
<path fill-rule="evenodd" clip-rule="evenodd" d="M28.4 0H11.6C8.52349 0 5.57298 1.22214 3.39756 3.39756C1.22214 5.57298 0 8.52349 0 11.6V28.4C0 34.8 5.2 40 11.6 40H28.4C31.4765 40 34.427 38.7779 36.6024 36.6024C38.7779 34.427 40 31.4765 40 28.4V11.6C40 5.2 34.8 0 28.4 0ZM6.10883 6.10883C7.45909 4.75857 9.29044 4 11.2 4H28.8C32.78 4 36 7.22 36 11.2V28.8C36 30.7096 35.2414 32.5409 33.8912 33.8912C32.5409 35.2414 30.7096 36 28.8 36H11.2C7.22 36 4 32.78 4 28.8V11.2C4 9.29044 4.75857 7.45909 6.10883 6.10883ZM32.2678 7.73223C31.7989 7.26339 31.163 7 30.5 7C29.837 7 29.2011 7.26339 28.7322 7.73223C28.2634 8.20107 28 8.83696 28 9.5C28 10.163 28.2634 10.7989 28.7322 11.2678C29.2011 11.7366 29.837 12 30.5 12C31.163 12 31.7989 11.7366 32.2678 11.2678C32.7366 10.7989 33 10.163 33 9.5C33 8.83696 32.7366 8.20107 32.2678 7.73223ZM27.0711 12.9289C25.1957 11.0536 22.6522 10 20 10C17.3478 10 14.8043 11.0536 12.9289 12.9289C11.0536 14.8043 10 17.3478 10 20C10 22.6522 11.0536 25.1957 12.9289 27.0711C14.8043 28.9464 17.3478 30 20 30C22.6522 30 25.1957 28.9464 27.0711 27.0711C28.9464 25.1957 30 22.6522 30 20C30 17.3478 28.9464 14.8043 27.0711 12.9289ZM15.7574 15.7574C16.8826 14.6321 18.4087 14 20 14C21.5913 14 23.1174 14.6321 24.2426 15.7574C25.3679 16.8826 26 18.4087 26 20C26 21.5913 25.3679 23.1174 24.2426 24.2426C23.1174 25.3679 21.5913 26 20 26C18.4087 26 16.8826 25.3679 15.7574 24.2426C14.6321 23.1174 14 21.5913 14 20C14 18.4087 14.6321 16.8826 15.7574 15.7574Z" fill="white"/>
</svg>
