<svg width="40" height="40" viewBox="0 0 40 40" fill="none" xmlns="http://www.w3.org/2000/svg">
<path fill-rule="evenodd" clip-rule="evenodd" d="M8.6 15.5C14.7 13.6 25.4 14 31.8 17.8C32.7 18.3 33.9 18 34.4 17.3C34.9 16.4 34.6 15.2 33.7 14.7C26.3 10.3 14.6 9.9 7.5 12C6.6 12.3 6 13.3 6.3 14.3C6.6 15.2 7.6 15.8 8.6 15.5ZM29.5 23.9C30.2 24.4 31.1 24.1 31.6 23.4C32.1 22.7 31.8 21.7 31.2 21.4C25 17.6 16 16.5 8.7 18.7C7.9 18.9 7.5 19.8 7.7 20.6C7.9 21.4 8.8 21.8 9.6 21.6C15.9 19.6 24.1 20.6 29.5 23.9ZM27.5 29.3C28.1 29.7 28.8 29.5 29.2 28.9C29.5 28.3 29.4 27.5 28.7 27.2C23.5 24 16.9 23.3 9.3 25C8.7 25.2 8.2 25.8 8.4 26.5C8.6 27.1 9.2 27.6 9.9 27.4C16.9 25.8 22.8 26.4 27.5 29.3ZM12.3463 1.52241C14.7728 0.517315 17.3736 0 20 0C22.6264 0 25.2272 0.517315 27.6537 1.52241C30.0802 2.5275 32.285 4.00069 34.1421 5.85786C35.9993 7.71504 37.4725 9.91982 38.4776 12.3463C39.4827 14.7728 40 17.3736 40 20C40 25.3043 37.8929 30.3914 34.1421 34.1421C30.3914 37.8929 25.3043 40 20 40C17.3736 40 14.7728 39.4827 12.3463 38.4776C9.91982 37.4725 7.71504 35.9993 5.85786 34.1421C2.10714 30.3914 0 25.3043 0 20C0 14.6957 2.10714 9.60859 5.85786 5.85786C7.71504 4.00069 9.91982 2.5275 12.3463 1.52241Z" fill="white"/>
</svg>
