<svg width="40" height="28" viewBox="0 0 40 28" fill="none" xmlns="http://www.w3.org/2000/svg">
<path fill-rule="evenodd" clip-rule="evenodd" d="M26.38 14L16 20V8L26.38 14ZM39.68 8.14C39.56 6.54 39.38 5.28 39.12 4.34C38.62 2.54 37.46 1.38 35.66 0.88C33.6 0.32 28.38 0 20 0L16.82 0.12C14.62 0.12 12.24 0.18 9.64 0.32C7 0.44 5.28 0.62 4.34 0.88C2.54 1.38 1.38 2.54 0.88 4.34C0.32 6.4 0 9.62 0 14L0.12 15.68C0.12 16.88 0.18 18.26 0.32 19.86C0.44 21.46 0.62 22.72 0.88 23.66C1.38 25.46 2.54 26.62 4.34 27.12C6.4 27.68 11.62 28 20 28L23.18 27.88C25.38 27.88 27.76 27.82 30.36 27.68C33 27.56 34.72 27.38 35.66 27.12C37.46 26.62 38.62 25.46 39.12 23.66C39.68 21.6 40 18.38 40 14L39.88 12.32C39.88 11.12 39.82 9.74 39.68 8.14Z" fill="white"/>
</svg>
